<svg width="37" height="37" viewBox="0 0 37 37" fill="none" xmlns="http://www.w3.org/2000/svg">
<path fill-rule="evenodd" clip-rule="evenodd" d="M4.6053 4.6053C5.01944 4.19116 5.58114 3.9585 6.16683 3.9585H30.8335C31.4192 3.9585 31.9809 4.19116 32.395 4.6053C32.8092 5.01945 33.0418 5.58114 33.0418 6.16683V30.8335C33.0418 31.4192 32.8092 31.9809 32.395 32.395C31.9809 32.8092 31.4192 33.0418 30.8335 33.0418H6.16683C5.58114 33.0418 5.01945 32.8092 4.6053 32.395C4.19116 31.9809 3.9585 31.4192 3.9585 30.8335V6.16683C3.9585 5.58114 4.19116 5.01944 4.6053 4.6053ZM20.7085 31.7085H30.8335C31.0656 31.7085 31.2881 31.6163 31.4522 31.4522C31.6163 31.2881 31.7085 31.0656 31.7085 30.8335V6.16683C31.7085 5.93476 31.6163 5.7122 31.4522 5.54811C31.2881 5.38402 31.0656 5.29183 30.8335 5.29183H6.16683C5.93476 5.29183 5.71221 5.38402 5.54811 5.54811C5.38402 5.71221 5.29183 5.93476 5.29183 6.16683V30.8335C5.29183 31.0656 5.38402 31.2881 5.54811 31.4522C5.7122 31.6163 5.93476 31.7085 6.16683 31.7085H19.3752V22.2502H15.4168C15.0486 22.2502 14.7502 21.9517 14.7502 21.5835C14.7502 21.2153 15.0486 20.9168 15.4168 20.9168H19.3752V15.4168C19.3752 14.4223 19.7703 13.4684 20.4735 12.7652C21.1768 12.0619 22.1306 11.6668 23.1252 11.6668H26.2085C26.5767 11.6668 26.8752 11.9653 26.8752 12.3335C26.8752 12.7017 26.5767 13.0002 26.2085 13.0002H23.1252C22.4842 13.0002 21.8695 13.2548 21.4163 13.708C20.9631 14.1612 20.7085 14.7759 20.7085 15.4168V20.9168H24.6668C25.035 20.9168 25.3335 21.2153 25.3335 21.5835C25.3335 21.9517 25.035 22.2502 24.6668 22.2502H20.7085V31.7085Z" fill="white"/>
</svg>
