<svg width="37" height="37" viewBox="0 0 37 37" fill="none" xmlns="http://www.w3.org/2000/svg">
<path fill-rule="evenodd" clip-rule="evenodd" d="M6.16683 5.29183C5.93476 5.29183 5.71221 5.38402 5.54811 5.54811C5.38402 5.71221 5.29183 5.93476 5.29183 6.16683V30.8335C5.29183 31.0656 5.38402 31.2881 5.54811 31.4522C5.7122 31.6163 5.93476 31.7085 6.16683 31.7085H30.8335C31.0656 31.7085 31.2881 31.6163 31.4522 31.4522C31.6163 31.2881 31.7085 31.0656 31.7085 30.8335V6.16683C31.7085 5.93476 31.6163 5.7122 31.4522 5.54811C31.2881 5.38402 31.0656 5.29183 30.8335 5.29183H6.16683ZM4.6053 4.6053C5.01944 4.19116 5.58114 3.9585 6.16683 3.9585H30.8335C31.4192 3.9585 31.9809 4.19116 32.395 4.6053C32.8092 5.01945 33.0418 5.58114 33.0418 6.16683V30.8335C33.0418 31.4192 32.8092 31.9809 32.395 32.395C31.9809 32.8092 31.4192 33.0418 30.8335 33.0418H6.16683C5.58114 33.0418 5.01945 32.8092 4.6053 32.395C4.19116 31.9809 3.9585 31.4192 3.9585 30.8335V6.16683C3.9585 5.58114 4.19116 5.01944 4.6053 4.6053ZM14.7584 14.7584C15.7508 13.766 17.0967 13.2085 18.5002 13.2085C19.5468 13.2085 20.5698 13.5188 21.4401 14.1003C22.3103 14.6818 22.9885 15.5082 23.389 16.4751C23.7895 17.4421 23.8943 18.506 23.6902 19.5325C23.486 20.559 22.982 21.5019 22.2419 22.2419C21.5019 22.982 20.559 23.486 19.5325 23.6902C18.506 23.8943 17.4421 23.7895 16.4751 23.389C15.5082 22.9885 14.6818 22.3103 14.1003 21.4401C13.5188 20.5698 13.2085 19.5468 13.2085 18.5002C13.2085 17.0967 13.766 15.7508 14.7584 14.7584ZM18.5002 14.5418C17.4503 14.5418 16.4435 14.9589 15.7012 15.7012C14.9589 16.4435 14.5418 17.4503 14.5418 18.5002C14.5418 19.283 14.774 20.0483 15.2089 20.6993C15.6439 21.3502 16.2621 21.8576 16.9854 22.1572C17.7087 22.4568 18.5046 22.5352 19.2724 22.3824C20.0402 22.2297 20.7455 21.8527 21.2991 21.2991C21.8527 20.7455 22.2297 20.0402 22.3824 19.2724C22.5352 18.5046 22.4568 17.7087 22.1572 16.9854C21.8576 16.2621 21.3502 15.6439 20.6993 15.2089C20.0483 14.774 19.283 14.5418 18.5002 14.5418Z" fill="white"/>
<path fill-rule="evenodd" clip-rule="evenodd" d="M25.4648 10.7917C25.4648 10.4235 25.7633 10.125 26.1315 10.125H26.2857C26.6539 10.125 26.9523 10.4235 26.9523 10.7917C26.9523 11.1599 26.6539 11.4583 26.2857 11.4583H26.1315C25.7633 11.4583 25.4648 11.1599 25.4648 10.7917Z" fill="white"/>
</svg>
