<svg width="35" height="35" viewBox="0 0 35 35" fill="none" xmlns="http://www.w3.org/2000/svg">
<g clip-path="url(#clip0_404470_1345)">
<path d="M34.6667 0H0V34.6667H34.6667V0Z" fill="white" fill-opacity="0.01"/>
<path d="M24.5552 4.33337H10.1108C6.91981 4.33337 4.33301 6.92017 4.33301 10.1112V24.5556C4.33301 27.7466 6.91981 30.3334 10.1108 30.3334H24.5552C27.7462 30.3334 30.333 27.7466 30.333 24.5556V10.1112C30.333 6.92017 27.7462 4.33337 24.5552 4.33337Z" stroke="white" stroke-width="1.44444" stroke-linejoin="round"/>
<path d="M17.3334 23.1111C20.5244 23.1111 23.1112 20.5243 23.1112 17.3333C23.1112 14.1423 20.5244 11.5555 17.3334 11.5555C14.1424 11.5555 11.5557 14.1423 11.5557 17.3333C11.5557 20.5243 14.1424 23.1111 17.3334 23.1111Z" stroke="white" stroke-width="1.44444" stroke-linejoin="round"/>
<path d="M25.2775 10.8333C26.0752 10.8333 26.7219 10.1867 26.7219 9.3889C26.7219 8.59114 26.0752 7.94446 25.2775 7.94446C24.4797 7.94446 23.833 8.59114 23.833 9.3889C23.833 10.1867 24.4797 10.8333 25.2775 10.8333Z" fill="white"/>
</g>
<defs>
<clipPath id="clip0_404470_1345">
<rect width="34.6667" height="34.6667" fill="white"/>
</clipPath>
</defs>
</svg>
