<svg width="238" height="256" viewBox="0 0 238 256" fill="none" xmlns="http://www.w3.org/2000/svg">
<path d="M179 62H59V182H179V62Z" fill="white" fill-opacity="0.01"/>
<path d="M143.999 77H93.999C82.9533 77 73.999 85.9543 73.999 97V147C73.999 158.046 82.9533 167 93.999 167H143.999C155.045 167 163.999 158.046 163.999 147V97C163.999 85.9543 155.045 77 143.999 77Z" stroke="white" stroke-width="6" stroke-linejoin="round"/>
<path d="M119 142C130.046 142 139 133.046 139 122C139 110.954 130.046 102 119 102C107.955 102 99.0005 110.954 99.0005 122C99.0005 133.046 107.955 142 119 142Z" stroke="white" stroke-width="6" stroke-linejoin="round"/>
<path d="M146.499 99.5C149.261 99.5 151.499 97.2615 151.499 94.5C151.499 91.7385 149.261 89.5 146.499 89.5C143.738 89.5 141.499 91.7385 141.499 94.5C141.499 97.2615 143.738 99.5 146.499 99.5Z" fill="white"/>
<path d="M24.7734 88.6608L10.9648 70.4532L13.7989 66.2159L30.1142 87.7289L27.5636 91.5425L24.7734 88.6608ZM14.9873 94.5651L14.7643 94.271C13.8862 93.1132 13.1807 91.9264 12.648 90.7106C12.1081 89.4854 11.7556 88.2691 11.5905 87.0614C11.4253 85.8538 11.4585 84.6785 11.6899 83.5355C11.9214 82.3925 12.3661 81.3291 13.0241 80.3452C13.643 79.4199 14.3254 78.7981 15.0712 78.48C15.8236 78.1522 16.6246 78.0902 17.4744 78.2941C18.3236 78.4789 19.2032 78.8872 20.1133 79.519C21.0164 80.1414 21.9313 80.9353 22.8581 81.9008L23.3467 82.545C24.0557 83.7365 24.6526 84.9361 25.1375 86.1438C25.6224 87.3515 25.9572 88.5445 26.1419 89.7229C26.326 90.8822 26.3251 91.9993 26.1393 93.0741C25.9535 94.149 25.5478 95.1539 24.9224 96.089C24.2644 97.0729 23.5329 97.7581 22.7278 98.1448C21.9293 98.5218 21.0922 98.6278 20.2163 98.4628C19.347 98.2881 18.4671 97.8703 17.5765 97.2093C16.686 96.5483 15.8229 95.6669 14.9873 94.5651ZM17.5788 90.063L17.8018 90.3571C18.2763 90.9827 18.7514 91.5176 19.2273 91.9617C19.7097 92.3962 20.1884 92.7066 20.6634 92.893C21.1378 93.0603 21.5906 93.0707 22.0218 92.9242C22.4523 92.7587 22.8533 92.3983 23.2246 91.8431C23.7067 91.1223 23.9873 90.374 24.0663 89.5983C24.1383 88.8133 24.0468 88.0236 23.7919 87.2292C23.5435 86.425 23.1597 85.644 22.6405 84.886L21.249 83.0513C20.7833 82.4922 20.3246 82.0523 19.8728 81.7316C19.4205 81.3918 18.9756 81.1902 18.5383 81.1268C18.1074 81.0536 17.6876 81.1234 17.2789 81.336C16.8767 81.5389 16.4964 81.9082 16.1381 82.4439C15.7732 82.9894 15.5526 83.5784 15.4761 84.2108C15.3925 84.8338 15.4251 85.4725 15.5738 86.1269C15.729 86.7715 15.9799 87.4324 16.3266 88.1095C16.6728 88.7676 17.0901 89.4187 17.5788 90.063Z" fill="white"/>
<path d="M39.8717 74.5701C38.8844 75.668 37.8838 76.4485 36.8699 76.9116C35.8503 77.3645 34.8589 77.5285 33.8959 77.4035C32.9407 77.2699 32.0446 76.8794 31.2078 76.2322C30.3651 75.5747 29.6329 74.6948 29.0111 73.5925L28.6657 72.98C27.9575 71.7246 27.4469 70.4238 27.1339 69.0777C26.8209 67.7316 26.7032 66.3926 26.7807 65.0607C26.8661 63.7201 27.1619 62.4361 27.6682 61.2088C28.1687 59.9712 28.8813 58.8383 29.8059 57.8101C30.7071 56.808 31.6157 56.1132 32.5319 55.7255C33.4481 55.3378 34.3428 55.2399 35.2159 55.4315C36.0969 55.6145 36.941 56.071 37.7481 56.8012C38.5495 57.5211 39.2928 58.4884 39.9779 59.7031L41.0142 61.5403L30.9059 72.7809L29.2478 69.8413L36.0298 62.2997L35.8398 61.9628C35.4943 61.3504 35.1001 60.9002 34.6571 60.6122C34.2162 60.3052 33.7467 60.1962 33.2485 60.2851C32.7504 60.374 32.2388 60.7103 31.7138 61.2941C31.2672 61.7908 30.9552 62.3454 30.7778 62.9578C30.6005 63.5702 30.5395 64.2194 30.5948 64.9053C30.658 65.5824 30.8143 66.2889 31.0636 67.0248C31.315 67.7418 31.648 68.4678 32.0625 69.2027L32.408 69.8151C32.7822 70.4785 33.1982 71.0125 33.6559 71.4171C34.1214 71.8129 34.6025 72.0668 35.0992 72.1788C35.6038 72.2821 36.1114 72.2326 36.622 72.0301C37.1405 71.819 37.6465 71.439 38.1402 70.89C38.7514 70.2103 39.2331 69.4255 39.5854 68.5355C39.9398 67.6265 40.1304 66.6422 40.1575 65.5824L43.1157 66.0797C43.1314 66.8761 43.0376 67.761 42.8344 68.7344C42.6389 69.6991 42.3035 70.6867 41.8279 71.6973C41.3465 72.6976 40.6945 73.6552 39.8717 74.5701Z" fill="white"/>
<path d="M46.603 46.2753L51.9445 60.3798L47.8738 63.4189L41.1378 45.6321L44.955 42.7823L46.603 46.2753ZM47.7765 51.2824L46.6497 52.1236C46.1807 50.8853 45.8758 49.6508 45.7351 48.4204C45.5996 47.172 45.6354 45.9785 45.8426 44.8398C46.055 43.6831 46.4512 42.6141 47.0312 41.6329C47.6112 40.6516 48.3894 39.7964 49.366 39.0673C50.0421 38.5625 50.7076 38.2204 51.3623 38.0408C52.0129 37.8503 52.6355 37.8564 53.2302 38.0591C53.8301 38.2438 54.3943 38.652 54.9226 39.2838C55.4468 39.9046 55.9185 40.7684 56.3377 41.8753L60.8324 53.7441L56.7758 56.7727L52.4803 45.43C52.1731 44.619 51.8427 44.0644 51.4888 43.7663C51.135 43.4681 50.7512 43.3611 50.3373 43.4451C49.9329 43.5222 49.4912 43.7394 49.0123 44.097C48.4864 44.4896 48.074 44.9592 47.7751 45.5057C47.4856 46.0452 47.2991 46.6342 47.2157 47.2728C47.1282 47.9005 47.1354 48.5558 47.2375 49.2387C47.3395 49.9217 47.5192 50.6029 47.7765 51.2824ZM56.6422 43.9675L55.2723 45.2644C54.8323 44.1027 54.5456 42.9321 54.4121 41.7525C54.288 40.5659 54.3268 39.4122 54.5288 38.2915C54.7401 37.1637 55.1331 36.1182 55.7079 35.1549C56.2784 34.1807 57.0426 33.336 58.0005 32.6209C58.7329 32.0741 59.4473 31.7024 60.1438 31.5057C60.8361 31.2981 61.4952 31.3051 62.1211 31.5266C62.7523 31.7302 63.3424 32.1752 63.8915 32.8618C64.45 33.5413 64.9637 34.5003 65.4327 35.7387L69.7345 47.0979L65.6638 50.1371L61.362 38.7779C61.0507 37.9559 60.7202 37.4013 60.3706 37.1142C60.0261 36.809 59.6491 36.7039 59.2394 36.7989C58.8349 36.876 58.3979 37.0898 57.9284 37.4403C57.4401 37.8048 57.0564 38.2389 56.7774 38.7425C56.4942 39.2351 56.3052 39.7698 56.2104 40.3466C56.1157 40.9234 56.1069 41.5204 56.184 42.1376C56.257 42.7438 56.4097 43.3538 56.6422 43.9675Z" fill="white"/>
<path d="M73.7192 24.3334L78.2951 42.7943L73.7309 45.0247L69.155 26.5638L73.7192 24.3334ZM67.6781 21.8913C67.5004 21.1747 67.5855 20.47 67.9331 19.7773C68.2808 19.0846 68.8442 18.5478 69.6234 18.1671C70.392 17.7915 71.0657 17.7237 71.6446 17.9637C72.234 18.1985 72.6175 18.6742 72.7951 19.3908C72.9727 20.1074 72.8824 20.8146 72.5242 21.5125C72.1766 22.2052 71.6184 22.7394 70.8498 23.115C70.0707 23.4957 69.3917 23.5661 68.8128 23.3261C68.2339 23.0862 67.8557 22.6079 67.6781 21.8913Z" fill="white"/>
<path d="M93.4527 31.367C93.3958 31.0082 93.2439 30.7155 92.9967 30.489C92.7495 30.2625 92.3326 30.1132 91.746 30.0412C91.1687 29.9542 90.3546 29.9653 89.3037 30.0747C88.3534 30.1526 87.4564 30.1593 86.6127 30.0946C85.7783 30.0149 85.0345 29.8402 84.3814 29.5703C83.7394 29.2969 83.2076 28.9042 82.7861 28.392C82.3627 27.8682 82.0878 27.207 81.9614 26.4083C81.8368 25.6212 81.8817 24.8298 82.0962 24.0341C82.3219 23.2349 82.7002 22.4731 83.2312 21.7486C83.7715 21.0091 84.4653 20.3492 85.3126 19.769C86.1692 19.1737 87.1625 18.6997 88.2923 18.3471C89.8696 17.8548 91.2644 17.6928 92.4767 17.861C93.7002 18.0258 94.6864 18.4711 95.4352 19.1969C96.1934 19.9077 96.6641 20.8419 96.8473 21.9993L92.0147 23.5076C91.9378 23.0214 91.7684 22.6188 91.5066 22.2997C91.2541 21.9655 90.9035 21.753 90.4548 21.6623C90.0154 21.5565 89.4713 21.6048 88.8225 21.8073C88.2855 21.9749 87.8369 22.2182 87.4765 22.5372C87.1143 22.8445 86.8525 23.1934 86.6913 23.5839C86.5394 23.9592 86.4937 24.3379 86.5542 24.7199C86.6 25.0092 86.6972 25.2522 86.8457 25.4488C87.0035 25.6303 87.2314 25.7717 87.5292 25.8731C87.827 25.9745 88.2012 26.0399 88.652 26.0693C89.1121 26.0836 89.671 26.0549 90.3288 25.9832C91.6816 25.8526 92.9083 25.8523 94.009 25.9825C95.1078 26.1012 96.0197 26.4482 96.7447 27.0236C97.4679 27.5874 97.9266 28.4828 98.1208 29.7097C98.2527 30.543 98.1947 31.3628 97.9466 32.169C97.6986 32.9752 97.2802 33.7435 96.6915 34.4738C96.1009 35.1926 95.3587 35.8433 94.4648 36.4259C93.5803 36.9935 92.5564 37.4588 91.393 37.8219C89.7038 38.3491 88.2224 38.4835 86.9489 38.225C85.6865 37.9631 84.6773 37.446 83.9211 36.6739C83.1743 35.8866 82.7203 34.9838 82.559 33.9652L87.1399 32.5355C87.2704 33.2114 87.5253 33.7088 87.9044 34.0278C88.2948 34.3432 88.7508 34.5167 89.2723 34.5483C89.805 34.5764 90.3622 34.4996 90.9439 34.3181C91.5704 34.1226 92.0768 33.8734 92.4632 33.5706C92.8478 33.2563 93.1226 32.9154 93.2875 32.5482C93.4617 32.1658 93.5168 31.7721 93.4527 31.367Z" fill="white"/>
<path d="M110.913 14.2722L111.158 17.8498L100.183 19.3289L99.9384 15.7513L110.913 14.2722ZM102.336 10.7026L107.353 10.0264L108.58 27.967C108.617 28.5165 108.716 28.928 108.875 29.2015C109.046 29.4734 109.28 29.6483 109.579 29.7261C109.876 29.7922 110.246 29.7955 110.687 29.736C111.001 29.6938 111.279 29.6445 111.521 29.5882C111.774 29.5187 111.986 29.4547 112.158 29.3962L112.43 33.1117C112.01 33.3099 111.553 33.4836 111.059 33.6327C110.565 33.7819 110.016 33.8971 109.412 33.9785C108.309 34.1272 107.333 34.0759 106.483 33.8246C105.645 33.56 104.977 33.0483 104.48 32.2894C103.982 31.5304 103.688 30.4846 103.597 29.1517L102.336 10.7026Z" fill="white"/>
<path d="M127.716 29.0119L128.032 14.5486L133.09 14.7675L132.674 33.7824L127.915 33.5765L127.716 29.0119ZM128.363 25.1348L129.856 25.1643C129.829 26.4296 129.657 27.6007 129.34 28.6776C129.024 29.7428 128.564 30.6611 127.961 31.4325C127.359 32.1921 126.608 32.7753 125.708 33.182C124.809 33.577 123.756 33.7484 122.551 33.6962C121.626 33.6562 120.774 33.4903 119.995 33.1986C119.228 32.8957 118.57 32.4509 118.02 31.8642C117.483 31.2663 117.065 30.5154 116.769 29.6113C116.484 28.696 116.356 27.6057 116.383 26.3403L116.652 14.0562L121.71 14.275L121.44 26.5943C121.428 27.1567 121.482 27.634 121.602 28.0262C121.734 28.4189 121.921 28.7436 122.161 29.0003C122.402 29.2569 122.685 29.4451 123.01 29.5647C123.347 29.6848 123.721 29.7538 124.131 29.7715C125.173 29.8166 125.997 29.6412 126.603 29.2452C127.221 28.8498 127.661 28.2942 127.923 27.5785C128.196 26.8515 128.343 26.037 128.363 25.1348Z" fill="white"/>
<path d="M147.424 33.7332L150.379 11.0736L155.316 12.3431L151.824 39.1163L147.381 37.9738L147.424 33.7332ZM136.443 25.6493L136.491 25.2832C136.679 23.8423 137.008 22.5759 137.479 21.4839C137.951 20.3804 138.549 19.4833 139.273 18.7926C139.996 18.1019 140.837 17.6394 141.794 17.4051C142.751 17.1709 143.803 17.2011 144.949 17.4959C146.028 17.7731 146.939 18.2478 147.684 18.9198C148.441 19.5947 149.047 20.4351 149.502 21.4409C149.97 22.4381 150.305 23.5629 150.505 24.8154C150.707 26.0563 150.798 27.3827 150.778 28.7948L150.673 29.5966C150.343 30.8688 149.928 32.0233 149.43 33.06C148.931 34.0967 148.336 34.9648 147.647 35.6642C146.97 36.355 146.193 36.8277 145.315 37.0824C144.438 37.337 143.454 37.3243 142.364 37.0441C141.218 36.7494 140.228 36.2485 139.393 35.5415C138.57 34.8374 137.908 33.9767 137.407 32.9592C136.918 31.9446 136.59 30.8154 136.424 29.5717C136.258 28.3279 136.264 27.0205 136.443 25.6493ZM141.394 26.544L141.346 26.91C141.245 27.6886 141.207 28.4294 141.232 29.1326C141.269 29.8387 141.39 30.4882 141.594 31.0812C141.811 31.6654 142.122 32.1597 142.526 32.564C142.944 32.9596 143.476 33.2406 144.123 33.407C144.963 33.6229 145.68 33.6092 146.275 33.3658C146.872 33.1108 147.356 32.677 147.729 32.0644C148.114 31.4547 148.387 30.7082 148.549 29.8252L148.847 27.5418C148.909 26.8009 148.892 26.1181 148.798 25.4933C148.716 24.8598 148.544 24.2931 148.28 23.793C148.029 23.2959 147.685 22.8713 147.25 22.5192C146.826 22.1701 146.303 21.9153 145.678 21.7547C145.043 21.5913 144.478 21.6023 143.985 21.7877C143.493 21.9615 143.072 22.2675 142.721 22.7058C142.382 23.1471 142.099 23.6988 141.872 24.361C141.658 25.0145 141.498 25.7422 141.394 26.544Z" fill="white"/>
<path d="M164.136 25.0451L160.034 43.6169L155.376 41.5887L159.479 23.0168L164.136 25.0451ZM160.258 18.0501C160.417 17.3292 160.785 16.8371 161.361 16.5739C161.937 16.3106 162.623 16.352 163.418 16.6983C164.203 17.0398 164.779 17.5481 165.148 18.2232C165.528 18.9029 165.639 19.6032 165.479 20.3241C165.32 21.045 164.947 21.5347 164.36 21.7933C163.783 22.0566 163.103 22.0175 162.319 21.6759C161.524 21.3297 160.942 20.8191 160.572 20.144C160.203 19.469 160.098 18.7711 160.258 18.0501Z" fill="white"/>
<path d="M168.003 37.9099L168.116 37.5585C168.542 36.2308 169.103 35.1157 169.798 34.2132C170.497 33.2995 171.3 32.6337 172.209 32.2156C173.118 31.7976 174.116 31.6577 175.204 31.796C176.295 31.9231 177.449 32.3723 178.667 33.1435C179.884 33.9148 180.893 34.8357 181.693 35.9063C182.496 36.9657 183.087 38.112 183.465 39.3452C183.854 40.5847 184.035 41.8745 184.009 43.2146C183.988 44.5435 183.763 45.8718 183.337 47.1994L183.224 47.5509C182.801 48.8674 182.24 49.9825 181.542 50.8962C180.846 51.7987 180.038 52.4614 179.116 52.8843C178.207 53.3024 177.209 53.4423 176.121 53.304C175.034 53.1657 173.881 52.711 172.663 51.9397C171.446 51.1684 170.435 50.2531 169.632 49.1936C168.838 48.1405 168.247 46.9942 167.859 45.7547C167.485 44.5103 167.308 43.2237 167.33 41.8948C167.356 40.5547 167.58 39.2264 168.003 37.9099ZM172.392 40.2673L172.28 40.6188C172.036 41.3775 171.868 42.1236 171.775 42.8571C171.682 43.5906 171.684 44.2899 171.78 44.955C171.89 45.6152 172.112 46.2196 172.448 46.7682C172.785 47.3167 173.259 47.7854 173.873 48.1742C174.467 48.5504 175.022 48.7339 175.537 48.7246C176.053 48.7153 176.518 48.5467 176.933 48.2188C177.352 47.8798 177.726 47.4188 178.056 46.8357C178.397 46.259 178.689 45.5913 178.932 44.8326L179.045 44.4812C179.282 43.7448 179.44 43.0123 179.519 42.2837C179.612 41.5502 179.605 40.8477 179.499 40.1763C179.406 39.5001 179.194 38.8821 178.861 38.3224C178.529 37.7627 178.061 37.2916 177.457 36.909C176.853 36.5265 176.292 36.3455 175.773 36.366C175.264 36.3927 174.793 36.578 174.361 36.9219C173.942 37.261 173.568 37.722 173.237 38.305C172.911 38.8769 172.629 39.531 172.392 40.2673Z" fill="white"/>
<path d="M184.962 58.7385C185.261 58.0504 185.706 57.6427 186.299 57.5154C186.9 57.3957 187.53 57.6175 188.189 58.181C188.849 58.7444 189.274 59.4248 189.465 60.2221C189.666 61.0271 189.617 61.7736 189.319 62.4617C189.02 63.1498 188.57 63.5537 187.969 63.6734C187.377 63.8007 186.751 63.5827 186.092 63.0193C185.433 62.4558 185.003 61.7717 184.802 60.9667C184.611 60.1694 184.664 59.4266 184.962 58.7385Z" fill="white"/>
<path d="M202.645 74.6495L209.715 62.0277L213.113 65.7802L203.818 82.374L200.621 78.8431L202.645 74.6495ZM204.93 71.6618L205.95 72.7386C205.331 73.8428 204.657 74.7618 203.928 75.4954C203.205 76.2189 202.451 76.7111 201.669 76.9721C200.892 77.2228 200.095 77.2123 199.28 76.9407C198.47 76.6588 197.66 76.0705 196.85 75.1759C196.229 74.4897 195.717 73.7431 195.316 72.9362C194.929 72.1277 194.684 71.2697 194.581 70.362C194.492 69.4527 194.559 68.4923 194.782 67.4808C195.018 66.4677 195.446 65.409 196.064 64.3048L202.069 53.5847L205.467 57.3372L199.445 68.0879C199.17 68.5787 198.982 69.0405 198.879 69.4735C198.785 69.9151 198.76 70.3345 198.805 70.7316C198.85 71.1287 198.956 71.4949 199.125 71.8301C199.302 72.174 199.528 72.498 199.803 72.802C200.503 73.5751 201.157 73.9991 201.764 74.074C202.379 74.1576 202.947 73.9737 203.467 73.5222C204.001 73.0692 204.489 72.449 204.93 71.6618Z" fill="white"/>
<path d="M215.049 93.928L220.168 87.1772C220.537 86.6916 220.796 86.1933 220.948 85.6822C221.106 85.1618 221.142 84.6283 221.056 84.0815C220.977 83.5445 220.755 83.0032 220.39 82.4578C220.077 81.9902 219.747 81.6653 219.399 81.4831C219.057 81.2916 218.715 81.248 218.372 81.3524C218.035 81.4474 217.722 81.6864 217.432 82.0692L214.617 77.8612C215.106 77.2169 215.674 76.7612 216.321 76.494C216.969 76.2268 217.658 76.1708 218.388 76.3262C219.125 76.4722 219.863 76.8282 220.602 77.3944C221.347 77.9702 222.061 78.7695 222.745 79.7923C223.566 81.0197 224.147 82.3067 224.488 83.6535C224.829 85.0002 224.885 86.3385 224.655 87.6684C224.431 89.0079 223.874 90.2659 222.981 91.4424L218.063 97.9271C217.433 98.7582 216.952 99.4934 216.62 100.133C216.295 100.763 216.052 101.376 215.892 101.973L215.711 102.211L212.867 97.9591C213.042 97.3437 213.327 96.6743 213.723 95.9509C214.132 95.2279 214.574 94.5536 215.049 93.928ZM219.828 88.6708L218.116 90.983L216.543 88.6306C216.172 88.0753 215.803 87.6538 215.437 87.3661C215.072 87.0784 214.716 86.9151 214.37 86.8762C214.031 86.8279 213.71 86.8852 213.406 87.048C213.108 87.2206 212.828 87.4796 212.566 87.8251C212.304 88.1706 212.122 88.5662 212.02 89.0119C211.926 89.4483 211.923 89.9017 212.011 90.3721C212.106 90.8332 212.294 91.2732 212.574 91.692C212.997 92.3252 213.457 92.7542 213.954 92.9789C214.451 93.2037 214.919 93.2654 215.357 93.1638C215.802 93.072 216.148 92.8722 216.396 92.5645L215.842 95.3837C215.448 95.6106 215.004 95.7932 214.51 95.9313C214.022 96.0791 213.503 96.1305 212.954 96.0856C212.411 96.0313 211.859 95.8335 211.297 95.4922C210.743 95.1416 210.202 94.5718 209.674 93.7828C209.003 92.7795 208.539 91.6773 208.282 90.4763C208.039 89.2756 208.016 88.0958 208.214 86.9369C208.425 85.7784 208.864 84.7603 209.529 83.8826C210.131 83.0889 210.77 82.5398 211.446 82.2352C212.122 81.9307 212.821 81.8703 213.544 82.054C214.28 82.2382 215.036 82.6807 215.811 83.3816C216.593 84.0731 217.388 85.0228 218.196 86.2307L219.828 88.6708Z" fill="white"/>
<path d="M17.0463 168.492L35.9245 155.615L38.0338 160.256L15.7285 175.47L13.8301 171.294L17.0463 168.492ZM16.3117 154.654L16.6166 154.446C17.8171 153.627 18.9741 153.033 20.0877 152.665C21.2109 152.29 22.2568 152.15 23.2254 152.244C24.1939 152.338 25.0634 152.674 25.8337 153.253C26.604 153.832 27.234 154.66 27.7238 155.737C28.1844 156.751 28.3933 157.768 28.3503 158.79C28.3122 159.822 28.0561 160.85 27.5822 161.872C27.1227 162.898 26.4841 163.906 25.6663 164.897C24.8582 165.882 23.9169 166.838 22.8424 167.767L22.1744 168.223C21.0126 168.819 19.887 169.273 18.7976 169.583C17.7082 169.892 16.6865 170.016 15.7325 169.954C14.793 169.896 13.955 169.615 13.2187 169.111C12.4823 168.607 11.8814 167.843 11.4159 166.819C10.9261 165.741 10.6882 164.646 10.7021 163.532C10.7208 162.429 10.9574 161.346 11.412 160.281C11.8714 159.227 12.5172 158.22 13.3496 157.261C14.1819 156.302 15.1693 155.433 16.3117 154.654ZM18.7114 159.055L18.4064 159.263C17.7578 159.705 17.1769 160.171 16.6639 160.661C16.1558 161.161 15.742 161.688 15.4228 162.241C15.118 162.798 14.9392 163.368 14.8863 163.949C14.8479 164.534 14.9669 165.131 15.2433 165.739C15.6021 166.528 16.0576 167.07 16.6098 167.364C17.1717 167.652 17.7989 167.734 18.4913 167.611C19.1886 167.499 19.9196 167.21 20.6845 166.744L22.5868 165.447C23.1822 164.999 23.6855 164.529 24.0968 164.039C24.5227 163.553 24.842 163.042 25.0547 162.505C25.2723 161.98 25.3785 161.432 25.3734 160.863C25.373 160.304 25.2395 159.731 24.9728 159.144C24.7013 158.547 24.3427 158.12 23.897 157.865C23.461 157.604 22.9694 157.485 22.4222 157.509C21.8799 157.543 21.2892 157.695 20.6501 157.963C20.0256 158.235 19.3794 158.599 18.7114 159.055Z" fill="white"/>
<path d="M26.2829 190.93C25.4586 189.705 24.8842 188.44 24.5599 187.134C24.2437 185.821 24.1535 184.524 24.2893 183.244C24.4316 181.973 24.7734 180.763 25.3147 179.612C25.8642 178.453 26.5843 177.424 27.4748 176.524L27.9696 176.025C28.9838 175.001 30.026 174.234 31.096 173.725C32.1661 173.216 33.223 172.965 34.2667 172.973C35.3169 172.99 36.3144 173.289 37.2592 173.87C38.2122 174.442 39.0747 175.302 39.8467 176.449C40.5991 177.568 41.1097 178.717 41.3786 179.899C41.6475 181.081 41.6896 182.255 41.5049 183.421C41.3268 184.597 40.9351 185.744 40.3298 186.861C39.7327 187.97 38.9436 189.02 37.9623 190.011L36.4781 191.51L28.0387 178.968L30.4135 176.57L36.0757 184.985L36.3479 184.71C36.8426 184.21 37.2118 183.658 37.4554 183.053C37.7139 182.449 37.8178 181.821 37.7674 181.17C37.717 180.519 37.4726 179.867 37.0343 179.216C36.6614 178.662 36.2377 178.289 35.7634 178.099C35.289 177.909 34.7812 177.874 34.2401 177.996C33.7054 178.128 33.1441 178.384 32.5561 178.766C31.9828 179.149 31.3993 179.64 30.8056 180.24L30.3109 180.739C29.7749 181.28 29.339 181.868 29.0032 182.501C28.674 183.143 28.4557 183.796 28.3483 184.46C28.2474 185.133 28.2666 185.8 28.4057 186.459C28.5514 187.129 28.8304 187.77 29.2425 188.382C29.7528 189.141 30.3508 189.721 31.0365 190.122C31.737 190.525 32.5032 190.707 33.335 190.667L32.8288 194.607C32.2023 194.685 31.5105 194.624 30.7535 194.425C30.0029 194.236 29.2399 193.863 28.4643 193.307C27.697 192.743 26.9698 191.951 26.2829 190.93Z" fill="white"/>
<path d="M48.4549 193.126L40.4085 205.883L36.7192 202.39L46.8664 186.304L50.3259 189.578L48.4549 193.126ZM45.3278 196.791L44.3066 195.824C45.013 194.704 45.7782 193.782 46.6019 193.058C47.4404 192.332 48.304 191.836 49.1927 191.569C50.0961 191.3 51.0059 191.291 51.9221 191.541C52.8383 191.791 53.7389 192.334 54.624 193.172C55.2367 193.752 55.7296 194.393 56.1027 195.094C56.482 195.786 56.7109 196.533 56.7892 197.335C56.8823 198.136 56.8028 198.994 56.5506 199.911C56.3047 200.818 55.866 201.772 55.2346 202.773L48.4635 213.508L44.787 210.027L51.258 199.769C51.7207 199.035 51.9919 198.39 52.0718 197.832C52.1517 197.275 52.0842 196.768 51.8693 196.311C51.663 195.862 51.3428 195.433 50.9088 195.022C50.4322 194.571 49.9433 194.29 49.4421 194.179C48.9493 194.077 48.4599 194.12 47.9738 194.309C47.4939 194.488 47.0299 194.793 46.5816 195.223C46.1334 195.654 45.7154 196.176 45.3278 196.791ZM53.8583 204.083L52.4215 203.031C53.0843 201.981 53.8107 201.109 54.6009 200.416C55.3997 199.732 56.236 199.257 57.1099 198.992C57.9924 198.735 58.8843 198.733 59.7857 198.985C60.6933 199.226 61.5812 199.758 62.4493 200.58C63.1131 201.208 63.6454 201.894 64.0463 202.638C64.4534 203.372 64.6952 204.162 64.7719 205.011C64.8632 205.857 64.7672 206.763 64.4838 207.73C64.2089 208.704 63.7182 209.752 63.0117 210.872L56.5314 221.145L52.8421 217.653L59.3225 207.379C59.7914 206.636 60.0626 205.99 60.1363 205.443C60.2246 204.893 60.1583 204.395 59.9372 203.948C59.7308 203.5 59.4149 203.074 58.9894 202.671C58.5469 202.252 58.094 201.99 57.6308 201.884C57.1738 201.768 56.7222 201.783 56.2758 201.931C55.8295 202.078 55.401 202.337 54.9902 202.708C54.5857 203.069 54.2084 203.528 53.8583 204.083Z" fill="white"/>
<path d="M75.2048 208.786L67.9487 226.367L63.6299 223.692L70.886 206.111L75.2048 208.786ZM72.5082 201.363C72.7898 200.68 73.2415 200.253 73.8631 200.08C74.4848 199.907 75.1642 200.049 75.9015 200.506C76.6287 200.956 77.1199 201.539 77.3749 202.255C77.6399 202.977 77.6316 203.679 77.35 204.361C77.0683 205.044 76.6117 205.468 75.98 205.635C75.3584 205.807 74.6839 205.669 73.9567 205.218C73.2194 204.761 72.7233 204.175 72.4682 203.46C72.2132 202.744 72.2265 202.045 72.5082 201.363Z" fill="white"/>
<path d="M86.4221 228.704C86.5184 228.354 86.5078 227.997 86.3904 227.634C86.2731 227.272 85.9816 226.862 85.5159 226.406C85.0642 225.943 84.3734 225.406 83.4434 224.796C82.611 224.226 81.8521 223.63 81.1667 223.008C80.4953 222.379 79.9385 221.728 79.4962 221.055C79.0648 220.386 78.7743 219.688 78.6247 218.959C78.4782 218.22 78.5121 217.46 78.7264 216.68C78.9376 215.912 79.2934 215.253 79.7939 214.705C80.3052 214.161 80.9302 213.752 81.6689 213.478C82.4215 213.197 83.2715 213.088 84.219 213.152C85.1803 213.209 86.2081 213.463 87.3023 213.914C88.8299 214.544 90.0709 215.339 91.0253 216.299C91.9906 217.263 92.6431 218.312 92.9828 219.446C93.3364 220.573 93.358 221.702 93.0475 222.832L88.3674 220.901C88.4978 220.427 88.5167 219.963 88.4242 219.51C88.3456 219.049 88.1354 218.629 87.7935 218.249C87.4656 217.863 86.9875 217.54 86.3591 217.28C85.8391 217.066 85.3631 216.977 84.9312 217.012C84.5023 217.037 84.1415 217.165 83.8487 217.396C83.5699 217.621 83.3792 217.92 83.2767 218.293C83.1991 218.575 83.1834 218.852 83.2296 219.122C83.2898 219.386 83.425 219.662 83.6354 219.95C83.8457 220.238 84.1349 220.546 84.5032 220.874C84.8853 221.195 85.368 221.545 85.9514 221.924C87.1444 222.718 88.1787 223.541 89.0543 224.393C89.933 225.233 90.5624 226.147 90.9424 227.134C91.3256 228.11 91.3526 229.197 91.0235 230.394C90.7999 231.208 90.4216 231.882 89.8886 232.417C89.3556 232.952 88.6942 233.34 87.9045 233.58C87.1178 233.81 86.2307 233.878 85.243 233.785C84.2693 233.685 83.2191 233.403 82.0924 232.938C80.4565 232.264 79.1537 231.387 78.1838 230.307C77.2248 229.233 76.5817 228.106 76.2544 226.926C75.941 225.741 75.921 224.65 76.1943 223.656L80.6306 225.486C80.4691 226.161 80.4841 226.765 80.6757 227.297C80.878 227.833 81.1927 228.29 81.6197 228.667C82.0576 229.049 82.5581 229.356 83.1215 229.589C83.7282 229.839 84.2552 229.962 84.7026 229.958C85.1532 229.942 85.5217 229.83 85.8083 229.621C86.1088 229.405 86.3134 229.1 86.4221 228.704Z" fill="white"/>
<path d="M107.42 219.638L106.914 223.188L96.0848 220.871L96.5909 217.321L107.42 219.638ZM99.9349 213.248L104.885 214.307L102.347 232.11C102.27 232.655 102.279 233.087 102.375 233.407C102.483 233.729 102.671 233.978 102.941 234.156C103.213 234.321 103.566 234.451 104.002 234.544C104.311 234.61 104.588 234.657 104.832 234.686C105.089 234.705 105.306 234.715 105.483 234.717L104.974 238.41C104.53 238.459 104.056 238.471 103.552 238.447C103.047 238.422 102.497 238.347 101.901 238.219C100.813 237.986 99.8872 237.603 99.1249 237.069C98.3757 236.526 97.8412 235.802 97.5215 234.897C97.2019 233.992 97.1363 232.878 97.3249 231.555L99.9349 213.248Z" fill="white"/>
<path d="M121.821 234.644L122.02 220.179L127.082 220.283L126.82 239.301L122.057 239.202L121.821 234.644ZM122.437 230.754L123.932 230.749C123.914 232.015 123.752 233.189 123.444 234.273C123.136 235.345 122.684 236.273 122.087 237.058C121.49 237.831 120.744 238.431 119.847 238.858C118.951 239.273 117.899 239.468 116.692 239.443C115.767 239.424 114.913 239.278 114.132 239.003C113.362 238.718 112.7 238.288 112.145 237.714C111.603 237.129 111.179 236.387 110.875 235.49C110.583 234.582 110.446 233.495 110.463 232.229L110.632 219.943L115.694 220.048L115.524 232.369C115.516 232.931 115.574 233.407 115.698 233.797C115.833 234.186 116.022 234.507 116.265 234.758C116.507 235.009 116.792 235.191 117.119 235.303C117.457 235.415 117.831 235.476 118.241 235.484C119.284 235.506 120.107 235.312 120.71 234.902C121.325 234.493 121.761 233.928 122.017 233.206C122.285 232.473 122.425 231.656 122.437 230.754Z" fill="white"/>
<path d="M142.782 232.101L139.635 209.467L144.626 208.426L148.343 235.169L143.852 236.106L142.782 232.101ZM130.305 229.472L130.254 229.107C130.054 227.668 130.033 226.328 130.192 225.089C130.348 223.838 130.677 222.724 131.179 221.748C131.681 220.771 132.352 219.956 133.194 219.303C134.036 218.649 135.036 218.202 136.195 217.96C137.284 217.733 138.269 217.766 139.148 218.061C140.038 218.353 140.83 218.868 141.523 219.607C142.226 220.333 142.836 221.239 143.353 222.325C143.868 223.4 144.302 224.606 144.653 225.942L144.764 226.743C144.786 228.088 144.697 229.36 144.498 230.56C144.299 231.76 143.966 232.845 143.498 233.815C143.041 234.77 142.432 235.566 141.67 236.203C140.909 236.839 139.977 237.272 138.876 237.502C137.717 237.744 136.652 237.721 135.679 237.434C134.718 237.145 133.869 236.636 133.13 235.906C132.402 235.174 131.797 234.261 131.315 233.167C130.832 232.074 130.496 230.842 130.305 229.472ZM135.21 228.073L135.261 228.439C135.369 229.216 135.527 229.93 135.736 230.579C135.955 231.226 136.239 231.782 136.587 232.247C136.945 232.697 137.368 233.021 137.856 233.218C138.353 233.401 138.929 233.424 139.583 233.288C140.432 233.111 141.105 232.773 141.602 232.275C142.098 231.766 142.442 231.139 142.633 230.394C142.836 229.647 142.899 228.822 142.82 227.918L142.503 225.638C142.367 224.914 142.173 224.279 141.92 223.735C141.677 223.176 141.366 222.722 140.987 222.371C140.619 222.018 140.184 221.774 139.681 221.64C139.19 221.504 138.629 221.501 137.998 221.633C137.355 221.767 136.826 222.033 136.409 222.43C135.99 222.816 135.673 223.294 135.457 223.865C135.253 224.433 135.13 225.08 135.09 225.805C135.059 226.516 135.099 227.272 135.21 228.073Z" fill="white"/>
<path d="M153.698 212.851L158.607 231.226L153.891 233.117L148.982 214.742L153.698 212.851ZM147.409 210.071C147.219 209.357 147.301 208.673 147.655 208.017C148.01 207.361 148.59 206.871 149.394 206.548C150.188 206.23 150.887 206.207 151.489 206.479C152.103 206.747 152.505 207.238 152.695 207.951C152.886 208.664 152.799 209.351 152.433 210.012C152.079 210.668 151.504 211.155 150.71 211.473C149.905 211.796 149.202 211.821 148.599 211.549C147.996 211.277 147.6 210.784 147.409 210.071Z" fill="white"/>
<path d="M161.966 220.23L161.825 219.888C161.293 218.599 160.973 217.308 160.864 216.015C160.751 214.711 160.853 213.458 161.17 212.255C161.487 211.053 162.027 209.936 162.79 208.906C163.549 207.865 164.541 206.965 165.766 206.206C166.991 205.447 168.176 204.998 169.32 204.861C170.46 204.713 171.519 204.839 172.498 205.239C173.486 205.634 174.375 206.273 175.165 207.157C175.951 208.031 176.61 209.112 177.142 210.401L177.283 210.742C177.811 212.021 178.131 213.312 178.244 214.616C178.352 215.909 178.245 217.165 177.923 218.385C177.606 219.587 177.066 220.704 176.303 221.734C175.54 222.764 174.546 223.659 173.32 224.418C172.095 225.177 170.912 225.631 169.773 225.779C168.643 225.921 167.584 225.795 166.595 225.401C165.612 224.989 164.728 224.347 163.942 223.473C163.152 222.589 162.493 221.508 161.966 220.23ZM166.129 217.223L166.269 217.564C166.573 218.301 166.917 218.951 167.3 219.516C167.684 220.082 168.106 220.528 168.566 220.855C169.031 221.165 169.534 221.322 170.075 221.328C170.615 221.333 171.194 221.145 171.811 220.762C172.409 220.392 172.866 219.939 173.183 219.403C173.499 218.866 173.689 218.28 173.751 217.643C173.809 216.995 173.766 216.314 173.622 215.601C173.487 214.882 173.268 214.154 172.964 213.417L172.823 213.076C172.528 212.361 172.186 211.73 171.798 211.182C171.414 210.617 170.988 210.174 170.517 209.853C170.053 209.515 169.548 209.338 169.003 209.321C168.459 209.305 167.883 209.485 167.275 209.862C166.667 210.238 166.207 210.7 165.895 211.247C165.593 211.788 165.41 212.39 165.347 213.055C165.289 213.703 165.332 214.384 165.476 215.097C165.616 215.799 165.834 216.508 166.129 217.223Z" fill="white"/>
<path d="M185.387 213.107C185.01 212.459 184.888 211.747 185.022 210.972C185.166 210.19 185.564 209.513 186.217 208.942C186.869 208.372 187.517 208.134 188.159 208.23C188.809 208.318 189.323 208.686 189.701 209.334C190.079 209.982 190.196 210.698 190.052 211.48C189.918 212.255 189.524 212.928 188.872 213.499C188.219 214.07 187.567 214.311 186.916 214.223C186.274 214.127 185.765 213.755 185.387 213.107Z" fill="white"/>
<path d="M202.008 194.162L193.057 182.798L196.327 178.933L208.095 193.874L205.019 197.511L202.008 194.162ZM199.957 190.667L200.9 189.499C201.683 190.493 202.318 191.53 202.803 192.61C203.281 193.681 203.577 194.753 203.692 195.826C203.799 196.89 203.703 197.937 203.403 198.967C203.096 199.987 202.553 200.958 201.773 201.88C201.175 202.587 200.543 203.139 199.877 203.536C199.21 203.914 198.521 204.097 197.81 204.085C197.099 204.054 196.366 203.81 195.61 203.352C194.855 202.876 194.086 202.14 193.303 201.146L185.7 191.494L188.97 187.629L196.594 197.309C196.942 197.751 197.278 198.074 197.6 198.28C197.93 198.476 198.251 198.577 198.562 198.583C198.873 198.588 199.168 198.507 199.445 198.339C199.73 198.163 200.004 197.918 200.269 197.605C200.943 196.808 201.342 196.016 201.467 195.229C201.6 194.432 201.521 193.654 201.23 192.896C200.94 192.119 200.515 191.376 199.957 190.667Z" fill="white"/>
<path d="M215.787 175.764L209.396 170.202C208.936 169.802 208.493 169.546 208.066 169.433C207.63 169.313 207.214 169.355 206.816 169.558C206.425 169.752 206.065 170.132 205.735 170.7C205.453 171.186 205.284 171.673 205.229 172.158C205.165 172.636 205.214 173.091 205.376 173.522C205.529 173.945 205.787 174.314 206.15 174.63L203.61 179.009C203 178.478 202.515 177.812 202.155 177.011C201.795 176.21 201.587 175.319 201.53 174.339C201.464 173.351 201.559 172.328 201.814 171.269C202.075 170.199 202.515 169.132 203.132 168.068C203.873 166.79 204.717 165.817 205.664 165.146C206.611 164.476 207.621 164.18 208.693 164.259C209.77 164.327 210.866 164.846 211.98 165.815L218.119 171.158C218.906 171.843 219.584 172.349 220.152 172.676C220.712 172.995 221.239 173.21 221.734 173.32L221.959 173.516L219.393 177.941C218.881 177.816 218.3 177.555 217.652 177.158C217.001 176.744 216.38 176.28 215.787 175.764ZM210.62 170.397L212.799 172.248L211.379 174.696C211.044 175.274 210.81 175.826 210.678 176.351C210.546 176.877 210.507 177.369 210.56 177.828C210.605 178.278 210.726 178.689 210.924 179.059C211.127 179.419 211.392 179.742 211.719 180.026C212.047 180.311 212.393 180.482 212.758 180.541C213.114 180.592 213.461 180.52 213.8 180.327C214.129 180.125 214.421 179.807 214.673 179.371C215.056 178.712 215.273 178.039 215.325 177.353C215.377 176.666 215.312 176.045 215.129 175.489C214.952 174.923 214.716 174.504 214.421 174.232L216.709 174.484C216.978 174.962 217.224 175.512 217.448 176.134C217.678 176.746 217.842 177.415 217.94 178.141C218.029 178.859 218.011 179.614 217.885 180.404C217.75 181.187 217.445 181.989 216.969 182.81C216.363 183.854 215.632 184.644 214.776 185.18C213.917 185.699 213.02 185.925 212.087 185.86C211.151 185.778 210.267 185.375 209.436 184.652C208.685 183.998 208.111 183.255 207.716 182.422C207.321 181.59 207.107 180.687 207.073 179.712C207.037 178.72 207.193 177.658 207.543 176.529C207.883 175.391 208.418 174.194 209.147 172.937L210.62 170.397Z" fill="white"/>
</svg>
