<svg width="170" height="50" viewBox="0 0 170 50" fill="none" xmlns="http://www.w3.org/2000/svg">
<path d="M0 6.25C0 2.79822 2.79822 0 6.25 0H163.75C167.202 0 170 2.79822 170 6.25V43.75C170 47.2018 167.202 50 163.75 50H6.25C2.79822 50 0 47.2018 0 43.75V6.25Z" fill="white"/>
<path d="M85.801 27.1888C82.8392 27.1888 80.4252 29.4251 80.4252 32.5051C80.4252 35.5663 82.8392 37.8213 85.801 37.8213C88.764 37.8213 91.178 35.5663 91.178 32.5051C91.1768 29.4251 88.7628 27.1888 85.801 27.1888ZM85.801 35.7288C84.1778 35.7288 82.7788 34.4001 82.7788 32.5063C82.7788 30.5926 84.1791 29.2838 85.801 29.2838C87.4242 29.2838 88.8232 30.5926 88.8232 32.5063C88.8232 34.3988 87.4242 35.7288 85.801 35.7288ZM74.0722 27.1888C71.1105 27.1888 68.6965 29.4251 68.6965 32.5051C68.6965 35.5663 71.1105 37.8213 74.0722 37.8213C77.0353 37.8213 79.4493 35.5663 79.4493 32.5051C79.4493 29.4251 77.0353 27.1888 74.0722 27.1888ZM74.0722 35.7288C72.4491 35.7288 71.05 34.4001 71.05 32.5063C71.05 30.5926 72.4503 29.2838 74.0722 29.2838C75.6954 29.2838 77.0945 30.5926 77.0945 32.5063C77.0957 34.3988 75.6954 35.7288 74.0722 35.7288ZM60.1222 28.8213V31.0763H65.5597C65.3972 32.3451 64.9716 33.2713 64.3218 33.9151C63.531 34.7001 62.2931 35.5663 60.1222 35.5663C56.7751 35.5663 54.1583 32.8876 54.1583 29.5651C54.1583 26.2426 56.7751 23.5638 60.1222 23.5638C61.9279 23.5638 63.2464 24.2688 64.2198 25.1751L65.8228 23.5838C64.4628 22.2951 62.6583 21.3088 60.1222 21.3088C55.5372 21.3088 51.6826 25.0138 51.6826 29.5651C51.6826 34.1163 55.5372 37.8213 60.1222 37.8213C62.5966 37.8213 64.4641 37.0151 65.9236 35.5051C67.4246 34.0151 67.8918 31.9201 67.8918 30.2288C67.8918 29.7063 67.8515 29.2226 67.7697 28.8201H60.1222V28.8213ZM117.177 30.5726C116.731 29.3851 115.371 27.1888 112.592 27.1888C109.833 27.1888 107.54 29.3438 107.54 32.5051C107.54 35.4851 109.813 37.8213 112.855 37.8213C115.309 37.8213 116.73 36.3313 117.319 35.4651L115.493 34.2563C114.885 35.1426 114.052 35.7263 112.855 35.7263C111.659 35.7263 110.806 35.1826 110.258 34.1151L117.42 31.1751L117.177 30.5726ZM109.873 32.3451C109.813 30.2901 111.476 29.2438 112.674 29.2438C113.607 29.2438 114.398 29.7076 114.662 30.3713L109.873 32.3451ZM104.051 37.5001H106.404V21.8738H104.051V37.5001ZM100.196 28.3776H100.115C99.5874 27.7526 98.5724 27.1888 97.2955 27.1888C94.6171 27.1888 92.1628 29.5251 92.1628 32.5263C92.1628 35.5063 94.6171 37.8226 97.2955 37.8226C98.5737 37.8226 99.5874 37.2588 100.115 36.6151H100.196V37.3801C100.196 39.4138 99.1 40.5013 97.3358 40.5013C95.8952 40.5013 95.0024 39.4751 94.6372 38.6088L92.5884 39.4551C93.1765 40.8638 94.7379 42.5963 97.3358 42.5963C100.095 42.5963 102.428 40.9851 102.428 37.0576V27.5126H100.197V28.3776H100.196ZM97.4982 35.7288C95.8751 35.7288 94.5163 34.3788 94.5163 32.5263C94.5163 30.6526 95.8751 29.2838 97.4982 29.2838C99.1 29.2838 100.358 30.6526 100.358 32.5263C100.358 34.3788 99.1 35.7288 97.4982 35.7288ZM128.2 21.8738H122.57V37.5001H124.919V31.5801H128.199C130.803 31.5801 133.364 29.7088 133.364 26.7276C133.364 23.7463 130.804 21.8738 128.2 21.8738ZM128.261 29.4051H124.919V24.0488H128.261C130.017 24.0488 131.015 25.4926 131.015 26.7276C131.015 27.9376 130.017 29.4051 128.261 29.4051ZM142.782 27.1613C141.081 27.1613 139.32 27.9051 138.59 29.5538L140.676 30.4176C141.121 29.5538 141.953 29.2713 142.823 29.2713C144.038 29.2713 145.273 29.9951 145.293 31.2813V31.4426C144.868 31.2013 143.956 30.8401 142.843 30.8401C140.595 30.8401 138.306 32.0663 138.306 34.3576C138.306 36.4488 140.149 37.7951 142.215 37.7951C143.794 37.7951 144.665 37.0913 145.212 36.2663H145.292V37.4726H147.561V31.4813C147.563 28.7088 145.475 27.1613 142.782 27.1613ZM142.498 35.7251C141.73 35.7251 140.656 35.3426 140.656 34.3976C140.656 33.1913 141.993 32.7288 143.148 32.7288C144.179 32.7288 144.666 32.9501 145.293 33.2513C145.111 34.7001 143.855 35.7251 142.498 35.7251ZM155.825 27.5026L153.131 34.2776H153.05L150.255 27.5026H147.724L151.916 36.9713L149.526 42.2388H151.976L158.438 27.5026H155.825ZM134.661 37.5001H137.01V21.8738H134.661V37.5001Z" fill="#1F005B"/>
<path d="M59.7114 12.8037C59.7114 13.8512 59.3991 14.685 58.7733 15.3075C58.063 16.0475 57.1362 16.4175 55.9979 16.4175C54.9073 16.4175 53.9793 16.0425 53.2174 15.2925C52.4543 14.5412 52.0728 13.6112 52.0728 12.5012C52.0728 11.39 52.4543 10.46 53.2174 9.70999C53.9793 8.95874 54.9073 8.58374 55.9979 8.58374C56.5393 8.58374 57.0569 8.68874 57.548 8.89749C58.0404 9.10749 58.4345 9.38624 58.7292 9.73499L58.0656 10.395C57.5656 9.80124 56.8768 9.50499 55.9966 9.50499C55.2008 9.50499 54.5132 9.78249 53.9327 10.3375C53.3522 10.8925 53.0625 11.6137 53.0625 12.5C53.0625 13.3862 53.3522 14.1075 53.9327 14.6625C54.5132 15.2175 55.2008 15.495 55.9966 15.495C56.8403 15.495 57.5442 15.2162 58.1071 14.6575C58.4723 14.2937 58.6839 13.7875 58.7405 13.1387H55.9966V12.2375H59.6573C59.695 12.4337 59.7114 12.6225 59.7114 12.8037Z" fill="#1F005B"/>
<path d="M65.5167 9.67131H62.0764V12.0488H65.1792V12.9501H62.0764V15.3276H65.5167V16.2501H61.1055V8.75006H65.5167V9.67131Z" fill="#1F005B"/>
<path d="M69.6104 16.2501H68.6395V9.67131H66.529V8.75006H71.721V9.67131H69.6104V16.2501Z" fill="#1F005B"/>
<path d="M75.4773 16.2501V8.75006H76.4482V16.2501H75.4773Z" fill="#1F005B"/>
<path d="M80.7538 16.2501H79.7829V9.67131H77.6724V8.75006H82.8643V9.67131H80.7538V16.2501Z" fill="#1F005B"/>
<path d="M92.6925 15.2813C91.9496 16.0388 91.0265 16.4176 89.9221 16.4176C88.8178 16.4176 87.8947 16.0388 87.153 15.2813C86.4101 14.5238 86.0398 13.5963 86.0398 12.5C86.0398 11.4038 86.4101 10.4763 87.153 9.7188C87.8947 8.9613 88.8178 8.5813 89.9221 8.5813C91.0202 8.5813 91.942 8.96255 92.6875 9.7238C93.433 10.485 93.8057 11.41 93.8057 12.5C93.8057 13.5963 93.4342 14.5238 92.6925 15.2813ZM87.8696 14.6525C88.4287 15.215 89.1124 15.495 89.9221 15.495C90.7319 15.495 91.4169 15.2138 91.9747 14.6525C92.5339 14.09 92.8147 13.3725 92.8147 12.5C92.8147 11.6275 92.5339 10.91 91.9747 10.3475C91.4169 9.78505 90.7319 9.50505 89.9221 9.50505C89.1124 9.50505 88.4287 9.7863 87.8696 10.3475C87.3117 10.91 87.0309 11.6275 87.0309 12.5C87.0309 13.3725 87.3117 14.09 87.8696 14.6525Z" fill="#1F005B"/>
<path d="M95.1683 16.2501V8.75006H96.3494L100.021 14.5838H100.063L100.021 13.1388V8.75006H100.992V16.2501H99.9786L96.1366 10.1326H96.0951L96.1366 11.5776V16.2501H95.1683Z" fill="#1F005B"/>
<path d="M59.7114 12.8037C59.7114 13.8512 59.3991 14.685 58.7733 15.3075C58.063 16.0475 57.1362 16.4175 55.9979 16.4175C54.9073 16.4175 53.9793 16.0425 53.2174 15.2925C52.4543 14.5412 52.0728 13.6112 52.0728 12.5012C52.0728 11.39 52.4543 10.46 53.2174 9.70999C53.9793 8.95874 54.9073 8.58374 55.9979 8.58374C56.5393 8.58374 57.0569 8.68874 57.548 8.89749C58.0404 9.10749 58.4345 9.38624 58.7292 9.73499L58.0656 10.395C57.5656 9.80124 56.8768 9.50499 55.9966 9.50499C55.2008 9.50499 54.5132 9.78249 53.9327 10.3375C53.3522 10.8925 53.0625 11.6137 53.0625 12.5C53.0625 13.3862 53.3522 14.1075 53.9327 14.6625C54.5132 15.2175 55.2008 15.495 55.9966 15.495C56.8403 15.495 57.5442 15.2162 58.1071 14.6575C58.4723 14.2937 58.6839 13.7875 58.7405 13.1387H55.9966V12.2375H59.6573C59.695 12.4337 59.7114 12.6225 59.7114 12.8037Z" stroke="#1F005B" stroke-width="0.25" stroke-miterlimit="10"/>
<path d="M65.5167 9.67131H62.0764V12.0488H65.1792V12.9501H62.0764V15.3276H65.5167V16.2501H61.1055V8.75006H65.5167V9.67131Z" stroke="#1F005B" stroke-width="0.25" stroke-miterlimit="10"/>
<path d="M69.6104 16.2501H68.6395V9.67131H66.529V8.75006H71.721V9.67131H69.6104V16.2501Z" stroke="#1F005B" stroke-width="0.25" stroke-miterlimit="10"/>
<path d="M75.4773 16.2501V8.75006H76.4482V16.2501H75.4773Z" stroke="#1F005B" stroke-width="0.25" stroke-miterlimit="10"/>
<path d="M80.7538 16.2501H79.7829V9.67131H77.6724V8.75006H82.8643V9.67131H80.7538V16.2501Z" stroke="#1F005B" stroke-width="0.25" stroke-miterlimit="10"/>
<path d="M92.6925 15.2813C91.9496 16.0388 91.0265 16.4176 89.9221 16.4176C88.8178 16.4176 87.8947 16.0388 87.153 15.2813C86.4101 14.5238 86.0398 13.5963 86.0398 12.5C86.0398 11.4038 86.4101 10.4763 87.153 9.7188C87.8947 8.9613 88.8178 8.5813 89.9221 8.5813C91.0202 8.5813 91.942 8.96255 92.6875 9.7238C93.433 10.485 93.8057 11.41 93.8057 12.5C93.8057 13.5963 93.4342 14.5238 92.6925 15.2813ZM87.8696 14.6525C88.4287 15.215 89.1124 15.495 89.9221 15.495C90.7319 15.495 91.4169 15.2138 91.9747 14.6525C92.5339 14.09 92.8147 13.3725 92.8147 12.5C92.8147 11.6275 92.5339 10.91 91.9747 10.3475C91.4169 9.78505 90.7319 9.50505 89.9221 9.50505C89.1124 9.50505 88.4287 9.7863 87.8696 10.3475C87.3117 10.91 87.0309 11.6275 87.0309 12.5C87.0309 13.3725 87.3117 14.09 87.8696 14.6525Z" stroke="#1F005B" stroke-width="0.25" stroke-miterlimit="10"/>
<path d="M95.1683 16.2501V8.75006H96.3494L100.021 14.5838H100.063L100.021 13.1388V8.75006H100.992V16.2501H99.9786L96.1366 10.1326H96.0951L96.1366 11.5776V16.2501H95.1683Z" stroke="#1F005B" stroke-width="0.25" stroke-miterlimit="10"/>
<path fill-rule="evenodd" clip-rule="evenodd" d="M12.7907 9.95553C12.6412 10.2904 12.5586 10.701 12.5586 11.1789V38.8239C12.5586 39.3027 12.6413 39.7133 12.7909 40.0479L27.9474 25.0008L12.7907 9.95553ZM13.6629 40.9436C14.2249 41.1832 14.9584 41.1079 15.7584 40.6576L33.5883 30.6002L28.8345 25.8814L13.6629 40.9436ZM34.7206 29.9629L40.3152 26.8076C42.0744 25.8139 42.0744 24.1901 40.3152 23.1976L34.7179 20.0405L29.7216 25.0007L34.7206 29.9629ZM33.5865 19.4023L15.7584 9.34636C14.9585 8.89515 14.225 8.82027 13.663 9.06015L28.8345 24.12L33.5865 19.4023Z" fill="#1F005B"/>
<path d="M6.25 1.25H163.75V-1.25H6.25V1.25ZM168.75 6.25V43.75H171.25V6.25H168.75ZM163.75 48.75H6.25V51.25H163.75V48.75ZM1.25 43.75V6.25H-1.25V43.75H1.25ZM6.25 48.75C3.48857 48.75 1.25 46.5114 1.25 43.75H-1.25C-1.25 47.8921 2.10786 51.25 6.25 51.25V48.75ZM168.75 43.75C168.75 46.5114 166.511 48.75 163.75 48.75V51.25C167.892 51.25 171.25 47.8921 171.25 43.75H168.75ZM163.75 1.25C166.511 1.25 168.75 3.48858 168.75 6.25H171.25C171.25 2.10787 167.892 -1.25 163.75 -1.25V1.25ZM6.25 -1.25C2.10786 -1.25 -1.25 2.10786 -1.25 6.25H1.25C1.25 3.48858 3.48858 1.25 6.25 1.25V-1.25Z" fill="#1F005B"/>
</svg>
