<svg width="246" height="245" viewBox="0 0 246 245" fill="none" xmlns="http://www.w3.org/2000/svg">
<path d="M162.242 191.674C198.645 169.949 211.149 120.612 190.17 81.4766C169.191 42.3413 122.673 28.2272 86.2704 49.952C49.8674 71.6767 37.3638 121.014 58.3428 160.149C79.3218 199.284 125.839 213.398 162.242 191.674Z" fill="url(#paint0_linear_404470_1135)"/>
<path d="M173.159 59.5808C173.92 60.2617 174.659 60.9793 175.398 61.697C177.103 63.3754 178.732 65.1332 180.281 66.9394C192.649 67.3644 201.042 70.55 203.197 76.7603C208.751 92.2047 173.659 120.284 124.848 139.51C76.0375 158.737 31.922 161.766 26.3684 146.322C23.3919 138.03 32.0972 126.128 48.3093 113.899C48.5024 110.941 48.8492 107.998 49.3479 105.086C21.6651 122.648 5.58724 140.886 9.86124 152.8C16.3903 171.13 68.7696 167.491 126.721 144.718C184.672 121.945 226.292 88.6 219.699 70.2514C215.972 60.0885 198.252 56.6667 173.159 59.5808Z" fill="url(#paint1_linear_404470_1135)"/>
<defs>
<linearGradient id="paint0_linear_404470_1135" x1="29.4256" y1="75.1447" x2="196.106" y2="117.203" gradientUnits="userSpaceOnUse">
<stop stop-color="#FF19EE"/>
<stop offset="0.881891" stop-color="white" stop-opacity="0"/>
</linearGradient>
<linearGradient id="paint1_linear_404470_1135" x1="53.1168" y1="120.137" x2="218.005" y2="72.5821" gradientUnits="userSpaceOnUse">
<stop stop-color="#D438D3"/>
<stop offset="0.685144" stop-color="white" stop-opacity="0.33"/>
<stop offset="0.992454" stop-color="white" stop-opacity="0"/>
</linearGradient>
</defs>
</svg>
