<?xml version="1.0" encoding="utf-8"?><svg viewBox="0 0 37 37" xmlns="http://www.w3.org/2000/svg" xmlns:xlink="http://www.w3.org/1999/xlink"><style>:root>svg{display:none}:root>svg:target{display:block}</style><svg fill="none" viewBox="0 0 35 35" id="facebook" xmlns="http://www.w3.org/2000/svg"><path d="M20.556 10.111h5.777V4.333h-5.777a7.222 7.222 0 00-7.223 7.223v4.333H9v5.778h4.333v8.666h5.778v-8.666h4.333l1.445-5.778H19.11v-4.333a1.444 1.444 0 011.445-1.445v0z" stroke="#fff" stroke-width="1.333" stroke-linecap="round" stroke-linejoin="round"/></svg><svg fill="none" viewBox="0 0 37 37" id="footer-facebook" xmlns="http://www.w3.org/2000/svg"><path fill-rule="evenodd" clip-rule="evenodd" d="M4.605 4.605a2.208 2.208 0 011.562-.647h24.666a2.208 2.208 0 012.209 2.209v24.666a2.208 2.208 0 01-2.209 2.209H6.168a2.208 2.208 0 01-2.208-2.209V6.168c0-.586.232-1.148.646-1.562zM20.71 31.71h10.125a.875.875 0 00.875-.875V6.166a.875.875 0 00-.875-.875H6.166a.875.875 0 00-.875.875v24.666a.875.875 0 00.875.876h13.208V22.25h-3.958a.667.667 0 010-1.333h3.958v-5.5a3.75 3.75 0 013.75-3.75h3.084a.667.667 0 010 1.333h-3.084a2.417 2.417 0 00-2.416 2.417v5.5h3.958a.667.667 0 010 1.333h-3.959v9.459z" fill="#fff"/></svg><svg fill="none" viewBox="0 0 37 37" id="footer-instagram" xmlns="http://www.w3.org/2000/svg"><path fill-rule="evenodd" clip-rule="evenodd" d="M6.167 5.292a.875.875 0 00-.875.875v24.666a.875.875 0 00.875.876h24.666a.875.875 0 00.876-.875V6.166a.875.875 0 00-.875-.875H6.166zm-1.562-.687a2.208 2.208 0 011.562-.647h24.666a2.208 2.208 0 012.209 2.209v24.666a2.208 2.208 0 01-2.209 2.209H6.168a2.208 2.208 0 01-2.208-2.209V6.168c0-.586.232-1.148.646-1.562zm10.153 10.153a5.292 5.292 0 117.484 7.484 5.292 5.292 0 01-7.484-7.484zm3.742-.216a3.958 3.958 0 100 7.917 3.958 3.958 0 000-7.917z" fill="#fff"/><path fill-rule="evenodd" clip-rule="evenodd" d="M25.465 10.792c0-.368.298-.667.666-.667h.155a.667.667 0 010 1.333h-.155a.667.667 0 01-.666-.666z" fill="#fff"/></svg><svg fill="none" viewBox="0 0 35 35" id="instagram" xmlns="http://www.w3.org/2000/svg"><g clip-path="url(#dclip0_404470_1345)"><path d="M34.667 0H0v34.667h34.667V0z" fill="#fff" fill-opacity=".01"/><path d="M24.555 4.333H10.111a5.778 5.778 0 00-5.778 5.778v14.445a5.778 5.778 0 005.778 5.777h14.444a5.778 5.778 0 005.778-5.777V10.11a5.778 5.778 0 00-5.778-5.778z" stroke="#fff" stroke-width="1.444" stroke-linejoin="round"/><path d="M17.333 23.111a5.778 5.778 0 100-11.555 5.778 5.778 0 000 11.555z" stroke="#fff" stroke-width="1.444" stroke-linejoin="round"/><path d="M25.277 10.833a1.444 1.444 0 100-2.888 1.444 1.444 0 000 2.888z" fill="#fff"/></g><defs><clipPath id="dclip0_404470_1345"><path fill="#fff" d="M0 0h34.667v34.667H0z"/></clipPath></defs></svg></svg>