<svg width="170" height="50" viewBox="0 0 170 50" fill="none" xmlns="http://www.w3.org/2000/svg">
<path d="M0 10.5C0 7.23841 0 5.60761 0.532843 4.32122C1.2433 2.60602 2.60602 1.2433 4.32122 0.532843C5.60761 0 7.23841 0 10.5 0H159.5C162.762 0 164.392 0 165.679 0.532843C167.394 1.2433 168.757 2.60602 169.467 4.32122C170 5.60761 170 7.23841 170 10.5V39.5C170 42.7616 170 44.3924 169.467 45.6788C168.757 47.394 167.394 48.7567 165.679 49.4672C164.392 50 162.762 50 159.5 50H10.5C7.23841 50 5.60761 50 4.32122 49.4672C2.60602 48.7567 1.2433 47.394 0.532843 45.6788C0 44.3924 0 42.7616 0 39.5V10.5Z" fill="white"/>
<path d="M115.495 24.0012V26.865H113.461V28.743H115.495V35.1242C115.495 37.3032 116.612 38.1748 119.423 38.1748C119.917 38.1748 120.387 38.1229 120.799 38.0606V36.2033C120.446 36.2345 120.222 36.2552 119.834 36.2552C118.576 36.2552 118.023 35.7364 118.023 34.5536V28.743H120.799V26.865H118.023V24.0012H115.495Z" fill="#1F005B"/>
<path d="M127.958 38.3304C131.698 38.3304 133.991 36.1203 133.991 32.4576C133.991 28.8156 131.686 26.5952 127.958 26.5952C124.219 26.5952 121.914 28.8156 121.914 32.4576C121.914 36.1203 124.207 38.3304 127.958 38.3304ZM127.958 36.3486C125.759 36.3486 124.524 34.9271 124.524 32.4576C124.524 30.0089 125.759 28.577 127.958 28.577C130.146 28.577 131.392 30.0089 131.392 32.4576C131.392 34.9167 130.146 36.3486 127.958 36.3486Z" fill="#1F005B"/>
<path d="M135.953 38.1125H138.481V31.4408C138.481 29.8532 139.833 28.7845 141.75 28.7845C142.197 28.7845 142.95 28.8572 143.161 28.9194V26.7197C142.891 26.6574 142.409 26.6263 142.032 26.6263C140.363 26.6263 138.94 27.4356 138.575 28.5459H138.387V26.8131H135.953V38.1125Z" fill="#1F005B"/>
<path d="M149.439 28.494C151.309 28.494 152.532 29.6457 152.591 31.42H146.123C146.264 29.6561 147.569 28.494 149.439 28.494ZM152.579 35.062C152.108 35.9439 151.062 36.4316 149.533 36.4316C147.51 36.4316 146.205 35.1761 146.123 33.1943V33.0698H155.166V32.2916C155.166 28.743 153.014 26.5952 149.451 26.5952C145.841 26.5952 143.548 28.8883 143.548 32.4991C143.548 36.11 145.794 38.3304 149.463 38.3304C152.391 38.3304 154.437 37.0853 155.013 35.062H152.579Z" fill="#1F005B"/>
<path d="M98.915 33.9398C99.1101 36.7145 101.731 38.4889 105.631 38.4889C109.799 38.4889 112.408 36.6284 112.408 33.6602C112.408 31.3265 110.921 30.036 107.313 29.2939L105.375 28.8745C103.083 28.4013 102.157 27.7668 102.157 26.6591C102.157 25.261 103.595 24.3469 105.753 24.3469C107.8 24.3469 109.214 25.2395 109.47 26.6698H112.127C111.969 24.0565 109.36 22.2175 105.789 22.2175C101.95 22.2175 99.3904 24.0565 99.3904 26.8204C99.3904 29.1003 100.841 30.4554 104.022 31.1114L106.289 31.5954C108.617 32.0793 109.641 32.7891 109.641 33.9721C109.641 35.3486 108.032 36.3488 105.838 36.3488C103.486 36.3488 101.852 35.4132 101.621 33.9398H98.915Z" fill="#1F005B"/>
<path d="M72.7247 26.6263C70.9843 26.6263 69.4791 27.3941 68.7029 28.6808H68.5148V26.8131H66.0806V41.8686H68.6089V36.4005H68.8088C69.4791 37.5937 70.9255 38.2993 72.7482 38.2993C75.982 38.2993 78.0399 36.0477 78.0399 32.4576C78.0399 28.8675 75.982 26.6263 72.7247 26.6263ZM72.0073 36.2967C69.8906 36.2967 68.5618 34.8233 68.5618 32.468C68.5618 30.1023 69.8906 28.6289 72.0191 28.6289C74.1593 28.6289 75.4411 30.0711 75.4411 32.4576C75.4411 34.8545 74.1593 36.2967 72.0073 36.2967Z" fill="#1F005B"/>
<path d="M86.8868 26.6263C85.1464 26.6263 83.6412 27.3941 82.8651 28.6808H82.6769V26.8131H80.2427V41.8686H82.771V36.4005H82.9709C83.6412 37.5937 85.0876 38.2993 86.9103 38.2993C90.1442 38.2993 92.2021 36.0477 92.2021 32.4576C92.2021 28.8675 90.1442 26.6263 86.8868 26.6263ZM86.1695 36.2967C84.0528 36.2967 82.7239 34.8233 82.7239 32.468C82.7239 30.1023 84.0528 28.6289 86.1812 28.6289C88.3214 28.6289 89.6032 30.0711 89.6032 32.4576C89.6032 34.8545 88.3214 36.2967 86.1695 36.2967Z" fill="#1F005B"/>
<path d="M61.5444 38.1125H64.4452L58.0951 22.5939H55.1577L48.8076 38.1125H51.6109L53.232 33.9936H59.9355L61.5444 38.1125ZM56.4863 25.4116H56.6935L59.2408 31.9718H53.9267L56.4863 25.4116Z" fill="#1F005B"/>
<path d="M50.5059 10.8886V18.3749H53.5692C56.0975 18.3749 57.5615 17.0001 57.5615 14.6084C57.5615 12.2531 56.0857 10.8886 53.5692 10.8886H50.5059ZM51.8229 11.947H53.4222C55.1802 11.947 56.2209 12.9327 56.2209 14.624C56.2209 16.3412 55.1979 17.3165 53.4222 17.3165H51.8229V11.947Z" fill="#1F005B"/>
<path d="M62.0454 18.4838C63.9151 18.4838 65.0617 17.3788 65.0617 15.5474C65.0617 13.7264 63.9093 12.6162 62.0454 12.6162C60.1756 12.6162 59.0232 13.7264 59.0232 15.5474C59.0232 17.3788 60.1698 18.4838 62.0454 18.4838ZM62.0454 17.4929C60.9459 17.4929 60.3285 16.7822 60.3285 15.5474C60.3285 14.3231 60.9459 13.6071 62.0454 13.6071C63.139 13.6071 63.7623 14.3231 63.7623 15.5474C63.7623 16.777 63.139 17.4929 62.0454 17.4929Z" fill="#1F005B"/>
<path d="M74.8256 12.7252H73.5614L72.4208 17.0364H72.3208L71.0037 12.7252H69.7925L68.4755 17.0364H68.3814L67.2348 12.7252H65.9531L67.717 18.3749H69.0164L70.3335 14.2141H70.4334L71.7563 18.3749H73.0675L74.8256 12.7252Z" fill="#1F005B"/>
<path d="M76.2814 18.3749H77.5455V15.0701C77.5455 14.1882 78.1394 13.6382 79.0742 13.6382C80.0091 13.6382 80.456 14.0896 80.456 14.9975V18.3749H81.7201V14.7173C81.7201 13.3737 80.9322 12.6162 79.5035 12.6162C78.5392 12.6162 77.9042 12.9949 77.5926 13.6227H77.4985V12.7252H76.2814V18.3749Z" fill="#1F005B"/>
<path d="M83.711 18.3749H84.9751V10.5203H83.711V18.3749Z" fill="#1F005B"/>
<path d="M89.7295 18.4838C91.5992 18.4838 92.7458 17.3788 92.7458 15.5474C92.7458 13.7264 91.5933 12.6162 89.7295 12.6162C87.8597 12.6162 86.7073 13.7264 86.7073 15.5474C86.7073 17.3788 87.8538 18.4838 89.7295 18.4838ZM89.7295 17.4929C88.63 17.4929 88.0126 16.7822 88.0126 15.5474C88.0126 14.3231 88.63 13.6071 89.7295 13.6071C90.8231 13.6071 91.4464 14.3231 91.4464 15.5474C91.4464 16.777 90.8231 17.4929 89.7295 17.4929Z" fill="#1F005B"/>
<path d="M96.5123 17.5292C95.8244 17.5292 95.3246 17.2335 95.3246 16.7251C95.3246 16.2271 95.7244 15.9625 96.6064 15.9106L98.1704 15.8224V16.2945C98.1704 16.9949 97.4648 17.5292 96.5123 17.5292ZM96.1889 18.4683C97.0297 18.4683 97.7294 18.1466 98.1116 17.5811H98.2116V18.3749H99.4287V14.515C99.4287 13.3218 98.5232 12.6162 96.918 12.6162C95.4657 12.6162 94.4309 13.2388 94.3015 14.2089H95.5245C95.6656 13.8094 96.1537 13.5812 96.8592 13.5812C97.7235 13.5812 98.1704 13.9184 98.1704 14.515V15.0027L96.4359 15.0909C94.913 15.1739 94.0546 15.7601 94.0546 16.777C94.0546 17.8094 94.9542 18.4683 96.1889 18.4683Z" fill="#1F005B"/>
<path d="M103.719 18.4683C104.6 18.4683 105.347 18.0999 105.729 17.4825H105.829V18.3749H107.041V10.5203H105.776V13.6227H105.682C105.335 13.0001 104.595 12.6318 103.719 12.6318C102.102 12.6318 101.061 13.7628 101.061 15.5474C101.061 17.3373 102.09 18.4683 103.719 18.4683ZM104.077 13.6331C105.136 13.6331 105.8 14.3749 105.8 15.5526C105.8 16.7355 105.141 17.467 104.077 17.467C103.007 17.467 102.366 16.7458 102.366 15.5474C102.366 14.3594 103.013 13.6331 104.077 13.6331Z" fill="#1F005B"/>
<path d="M115.238 18.4838C117.108 18.4838 118.254 17.3788 118.254 15.5474C118.254 13.7264 117.102 12.6162 115.238 12.6162C113.368 12.6162 112.216 13.7264 112.216 15.5474C112.216 17.3788 113.362 18.4838 115.238 18.4838ZM115.238 17.4929C114.139 17.4929 113.521 16.7822 113.521 15.5474C113.521 14.3231 114.139 13.6071 115.238 13.6071C116.332 13.6071 116.955 14.3231 116.955 15.5474C116.955 16.777 116.332 17.4929 115.238 17.4929Z" fill="#1F005B"/>
<path d="M119.928 18.3749H121.192V15.0701C121.192 14.1882 121.786 13.6382 122.721 13.6382C123.655 13.6382 124.102 14.0896 124.102 14.9975V18.3749H125.366V14.7173C125.366 13.3737 124.579 12.6162 123.15 12.6162C122.186 12.6162 121.551 12.9949 121.239 13.6227H121.145V12.7252H119.928V18.3749Z" fill="#1F005B"/>
<path d="M131.189 11.3192V12.7511H130.171V13.6901H131.189V16.8807C131.189 17.9702 131.747 18.406 133.152 18.406C133.399 18.406 133.635 18.3801 133.84 18.3489V17.4203C133.664 17.4359 133.552 17.4462 133.358 17.4462C132.729 17.4462 132.453 17.1868 132.453 16.5954V13.6901H133.84V12.7511H132.453V11.3192H131.189Z" fill="#1F005B"/>
<path d="M135.537 18.3749H136.801V15.0753C136.801 14.2193 137.378 13.6434 138.412 13.6434C139.306 13.6434 139.782 14.1 139.782 15.0027V18.3749H141.046V14.7277C141.046 13.384 140.206 12.6214 138.842 12.6214C137.877 12.6214 137.201 13.0001 136.89 13.6331H136.79V10.5203H135.537V18.3749Z" fill="#1F005B"/>
<path d="M145.607 13.5656C146.542 13.5656 147.153 14.1415 147.183 15.0286H143.949C144.019 14.1467 144.672 13.5656 145.607 13.5656ZM147.177 16.8496C146.941 17.2906 146.418 17.5344 145.654 17.5344C144.643 17.5344 143.99 16.9067 143.949 15.9158V15.8535H148.47V15.4644C148.47 13.6901 147.394 12.6162 145.613 12.6162C143.808 12.6162 142.661 13.7628 142.661 15.5682C142.661 17.3736 143.784 18.4838 145.619 18.4838C147.083 18.4838 148.106 17.8613 148.394 16.8496H147.177Z" fill="#1F005B"/>
<path d="M35.0893 25.3761C35.12 23.2748 36.3989 21.2866 38.4278 20.186C37.1479 18.5731 35.0041 17.5505 32.7736 17.4889C30.3947 17.2686 28.0885 18.7449 26.8762 18.7449C25.6405 18.7449 23.774 17.5108 21.7642 17.5473C19.1444 17.622 16.7021 18.9362 15.4275 20.9571C12.6877 25.1426 14.7314 31.2939 17.3559 34.6772C18.669 36.3339 20.2036 38.1845 22.2117 38.1188C24.1767 38.0469 24.9106 37.0132 27.2825 37.0132C29.6324 37.0132 30.321 38.1188 32.3698 38.0771C34.4783 38.0469 35.8068 36.4131 37.0738 34.7407C38.0173 33.5602 38.7433 32.2556 39.2249 30.875C36.747 29.9503 35.0922 27.75 35.0893 25.3761Z" fill="#1F005B"/>
<path d="M31.2195 15.2639C32.3691 14.0461 32.9355 12.4809 32.7984 10.9006C31.0419 11.0634 29.4195 11.8041 28.2543 12.9751C27.1149 14.1193 26.5219 15.657 26.634 17.1769C28.3911 17.1928 30.1184 16.4722 31.2195 15.2639Z" fill="#1F005B"/>
<path d="M4.32122 49.4672L4.7039 48.5433L4.32122 49.4672ZM169.467 45.6788L170.391 46.0615L169.467 45.6788ZM165.679 49.4672L166.061 50.391L165.679 49.4672ZM165.679 0.532843L166.061 -0.391036L165.679 0.532843ZM169.467 4.32122L170.391 3.93853L169.467 4.32122ZM10.5 1H159.5V-1H10.5V1ZM169 10.5V39.5H171V10.5H169ZM159.5 49H10.5V51H159.5V49ZM1 39.5V10.5H-1V39.5H1ZM10.5 49C8.85552 49 7.67225 48.9995 6.73798 48.9357C5.8127 48.8726 5.20494 48.7508 4.7039 48.5433L3.93853 50.391C4.72389 50.7163 5.57473 50.861 6.60184 50.9311C7.61997 51.0005 8.88289 51 10.5 51V49ZM-1 39.5C-1 41.1171 -1.00054 42.38 -0.931075 43.3982C-0.860996 44.4253 -0.716341 45.2761 -0.391036 46.0615L1.45672 45.2961C1.24918 44.7951 1.12742 44.1873 1.06429 43.262C1.00054 42.3278 1 41.1445 1 39.5H-1ZM4.7039 48.5433C3.23373 47.9343 2.06569 46.7663 1.45672 45.2961L-0.391036 46.0615C0.420915 48.0217 1.97831 49.5791 3.93853 50.391L4.7039 48.5433ZM169 39.5C169 41.1445 168.999 42.3278 168.936 43.262C168.873 44.1873 168.751 44.7951 168.543 45.2961L170.391 46.0615C170.716 45.2761 170.861 44.4253 170.931 43.3982C171.001 42.38 171 41.1171 171 39.5H169ZM159.5 51C161.117 51 162.38 51.0005 163.398 50.9311C164.425 50.861 165.276 50.7163 166.061 50.391L165.296 48.5433C164.795 48.7508 164.187 48.8726 163.262 48.9357C162.328 48.9995 161.144 49 159.5 49V51ZM168.543 45.2961C167.934 46.7663 166.766 47.9343 165.296 48.5433L166.061 50.391C168.022 49.5791 169.579 48.0217 170.391 46.0615L168.543 45.2961ZM159.5 1C161.144 1 162.328 1.00054 163.262 1.06429C164.187 1.12742 164.795 1.24918 165.296 1.45672L166.061 -0.391036C165.276 -0.716341 164.425 -0.860996 163.398 -0.931075C162.38 -1.00054 161.117 -1 159.5 -1V1ZM171 10.5C171 8.88289 171.001 7.61997 170.931 6.60184C170.861 5.57473 170.716 4.72389 170.391 3.93853L168.543 4.7039C168.751 5.20494 168.873 5.8127 168.936 6.73798C168.999 7.67225 169 8.85552 169 10.5H171ZM165.296 1.45672C166.766 2.06569 167.934 3.23373 168.543 4.7039L170.391 3.93853C169.579 1.97831 168.022 0.420915 166.061 -0.391036L165.296 1.45672ZM10.5 -1C8.88289 -1 7.61997 -1.00054 6.60184 -0.931075C5.57473 -0.860996 4.72389 -0.716341 3.93853 -0.391036L4.7039 1.45672C5.20494 1.24918 5.8127 1.12742 6.73798 1.06429C7.67225 1.00054 8.85552 1 10.5 1V-1ZM1 10.5C1 8.85552 1.00054 7.67225 1.06429 6.73798C1.12742 5.8127 1.24918 5.20494 1.45672 4.7039L-0.391036 3.93853C-0.716341 4.72389 -0.860996 5.57473 -0.931075 6.60184C-1.00054 7.61997 -1 8.88289 -1 10.5H1ZM3.93853 -0.391036C1.97831 0.420915 0.420915 1.97831 -0.391036 3.93853L1.45672 4.7039C2.06569 3.23373 3.23373 2.06569 4.7039 1.45672L3.93853 -0.391036Z" fill="#1F005B"/>
</svg>
